<?xml version="1.0" encoding="UTF-8"?>
<svg id="Layer_1" xmlns="http://www.w3.org/2000/svg" version="1.1" viewBox="0 0 841.9 595.3">
  <!-- Generator: Adobe Illustrator 29.0.0, SVG Export Plug-In . SVG Version: 2.1.0 Build 186)  -->
  <defs>
    <style>
      .st0 {
        fill: #ea580c;
      }
    </style>
  </defs>
  <g>
    <path d="M207,316h-43.5v-72.6h41.9v13.3h-25.5v16.2h23.7v13.3h-23.7v16.6h27.2v13.3Z"/>
    <path d="M284,316h-16.5l-29.9-45.6c-1.8-2.7-3-4.7-3.6-6h-.2c.3,2.6.4,6.5.4,11.7v39.9h-15.4v-72.6h17.6l28.8,44.2c1.3,2,2.5,4,3.6,5.9h.2c-.3-1.7-.4-5-.4-10v-40.1h15.4v72.6Z"/>
    <path d="M351.6,256.7h-20.7v59.3h-16.4v-59.3h-20.6v-13.3h57.7v13.3Z"/>
    <path d="M404.9,316h-43.5v-72.6h41.9v13.3h-25.5v16.2h23.7v13.3h-23.7v16.6h27.2v13.3Z"/>
    <path d="M477.4,316h-18.8l-11.3-18.7c-.8-1.4-1.7-2.7-2.4-3.8-.8-1.1-1.6-2.1-2.4-2.9-.8-.8-1.6-1.4-2.5-1.8-.9-.4-1.8-.6-2.8-.6h-4.4v27.8h-16.4v-72.6h25.9c17.6,0,26.4,6.6,26.4,19.7s-.4,4.9-1.2,7c-.8,2.1-1.9,4.1-3.3,5.8-1.4,1.7-3.1,3.2-5.1,4.5-2,1.2-4.2,2.2-6.7,2.9v.2c1.1.3,2.1.9,3.1,1.6,1,.8,2,1.6,2.9,2.7.9,1,1.8,2.1,2.7,3.3.9,1.2,1.6,2.3,2.4,3.4l13.7,21.5ZM432.9,255.7v20.2h7.1c3.5,0,6.3-1,8.5-3,2.2-2.1,3.2-4.6,3.2-7.6,0-6.3-3.8-9.5-11.4-9.5h-7.4Z"/>
  </g>
  <g>
    <path d="M529,316.6l-30.9-34.7c-.6-.6-1-1.2-1.2-1.7h-.2v36.4h-5v-72.6h5v34.2h.2c.4-.7.8-1.3,1.3-1.8l29.4-32.5h6.5l-31.8,35.2,33.8,37.4h-7Z"/>
    <path d="M563.9,317.8c-7.6,0-13.5-2.5-17.9-7.5-4.4-5-6.6-11.5-6.6-19.4s2.3-15.3,6.9-20.2c4.6-4.9,10.7-7.3,18.2-7.3s13.2,2.4,17.5,7.2c4.3,4.8,6.4,11.5,6.4,20s-2.2,14.6-6.6,19.6c-4.4,5-10.4,7.5-17.9,7.5ZM564.3,267.7c-6.1,0-11,2.1-14.6,6.2-3.6,4.1-5.4,9.8-5.4,17.2s1.8,12.2,5.3,16.4c3.5,4.1,8.4,6.2,14.5,6.2s11.1-2,14.4-6.1,5.1-9.7,5.1-16.9-1.7-13.1-5-17-8.1-5.9-14.3-5.9Z"/>
    <path d="M636.6,316.6v-30.2c0-12.5-4.5-18.7-13.5-18.7s-9.1,1.8-12.3,5.5c-3.2,3.7-4.8,8.2-4.8,13.6v29.8h-4.7v-51.8h4.7v9.4h.2c3.8-7.1,9.7-10.7,17.7-10.7s9.9,1.9,12.9,5.6c3,3.7,4.5,9.1,4.5,16v31.5h-4.7Z"/>
    <path d="M654.1,314.3v-5.6c1.8,1.5,3.9,2.7,6.4,3.6,2.5.9,4.7,1.3,6.5,1.3,8.1,0,12.2-3.3,12.2-10s-.9-4.3-2.7-5.9c-1.8-1.6-4.7-3.3-8.7-5-5-2.2-8.4-4.4-10.5-6.7-2-2.3-3-5.1-3-8.4s1.6-7.6,4.8-10.2c3.2-2.6,7.2-3.9,11.9-3.9s8.3.9,11.4,2.7v5.3c-3.8-2.5-7.8-3.7-11.9-3.7s-6.2.9-8.3,2.7c-2.1,1.8-3.1,4.1-3.1,6.9s.7,4.5,2,6c1.3,1.5,4.2,3.3,8.7,5.3,5.4,2.4,9.1,4.7,11.1,6.8,2,2.1,3,4.8,3,8.3s-1.5,7.5-4.6,10.2c-3.1,2.7-7.3,4-12.8,4s-9.2-1.2-12.5-3.5Z"/>
    <path d="M731.3,316.6v-9.4h-.2c-3.6,7.1-9.2,10.7-16.7,10.7-12.3,0-18.4-7.7-18.4-23.1v-30h4.7v28.8c0,7,1.2,12.1,3.5,15.3,2.3,3.2,5.9,4.8,10.9,4.8s8.7-1.8,11.7-5.3c3-3.5,4.5-8.3,4.5-14.2v-29.4h4.7v51.8h-4.7Z"/>
    <path d="M752.5,316.6v-76.8h4.7v76.8h-4.7Z"/>
    <path d="M794.3,315.9c-2.4,1.1-4.7,1.7-6.8,1.7-7.7,0-11.5-4.6-11.5-13.8v-34.8h-9.3v-4.3h9.3v-13.5c.7-.3,1.5-.5,2.3-.8.8-.2,1.6-.5,2.3-.8v15h13.7v4.3h-13.7v34.2c0,3.6.6,6.2,1.7,7.8,1.1,1.6,3,2.4,5.7,2.4s4-.6,6.2-1.9v4.4Z"/>
  </g>
  <polygon class="st0" points="113.9 261.2 104.5 270.6 120.2 284.4 59 284.4 59 243.4 46.8 243.4 46.8 296.7 118.3 296.7 104.5 311 113.5 319.9 143.5 290.4 113.9 261.2"/>
</svg>