<svg viewBox="100 360 400 125" xmlns="http://www.w3.org/2000/svg" role="img" aria-labelledby="redr-title"><title id="redr-title">REDR logo</title><g fill-rule="evenodd"><path d="m195.813 473.869-26.038-36.977c14.483-5.084 24.035-17.41 24.035-33.125 0-20.954-16.948-35.745-39.904-35.745h-47.608v105.847h22.648v-34.358h16.794l24.189 34.358zm-66.866-85.047h22.494c11.247 0 18.951 5.855 18.951 14.945s-7.704 14.945-18.951 14.945h-22.494z"/><path d="m201.629 453.378v7.705 12.786h20.491 61.013v-20.491h-36.357-22.345-2.311v-20.875l8.456-4.882 13.152-7.593 13.151 7.593 19.351 11.172 6.903 3.986v-2.2-17.793-3.669l-39.405-22.751-42.099 24.307v7.492 16.169 4.219z" fill="#dc2626"/><path d="m283.133 388.513v-20.492h-81.504v20.492h22.802 22.345z"/><path d="m294.342 473.869h37.901c35.59 0 60.858-22.032 60.858-53.001s-25.268-52.846-60.858-52.846h-37.901zm22.649-20.646v-64.556h18.18c20.183 0 34.512 13.404 34.512 32.201 0 18.951-14.329 32.355-34.512 32.355z"/><path d="m488.975 473.869-26.038-36.977c14.483-5.084 24.035-17.41 24.035-33.125 0-20.954-16.948-35.745-39.904-35.745h-47.608v105.847h22.648v-34.358h16.794l24.189 34.358zm-66.866-85.047h22.494c11.247 0 18.951 5.855 18.951 14.945s-7.704 14.945-18.951 14.945h-22.494z"/><path d="m222.12 368.021h-20.491v43.911l20.491-11.83z"/></g></svg>