<svg fill="none" height="101" viewBox="0 0 344 101" width="344" xmlns="http://www.w3.org/2000/svg" role="img" aria-labelledby="skeg-title"><title id="skeg-title">Skeg logo</title><path d="m194.24 73.96c-4.651 0-8.715-.96-12.192-2.88s-6.187-4.6293-8.128-8.128c-1.92-3.52-2.88-7.6267-2.88-12.32 0-3.4133.565-6.5387 1.696-9.376 1.152-2.8587 2.763-5.3333 4.832-7.424 2.091-2.0907 4.555-3.712 7.392-4.864s5.952-1.728 9.344-1.728c3.413 0 6.357.4267 8.832 1.28 2.496.8533 4.672 2.0693 6.528 3.648l-3.712 5.856c-1.408-1.3013-3.051-2.272-4.928-2.912s-3.947-.96-6.208-.96c-2.496 0-4.747.384-6.752 1.152s-3.723 1.8667-5.152 3.296c-1.408 1.408-2.496 3.1253-3.264 5.152-.747 2.0053-1.12 4.2773-1.12 6.816 0 3.456.672 6.4107 2.016 8.864 1.365 2.4533 3.285 4.3307 5.76 5.632 2.496 1.28 5.44 1.92 8.832 1.92 2.261 0 4.437-.3307 6.528-.992 2.112-.6827 4.085-1.7813 5.92-3.296l3.328 6.048c-2.155 1.6853-4.619 2.976-7.392 3.872-2.752.896-5.845 1.344-9.28 1.344zm44.134 0c-3.371 0-6.496-.5867-9.376-1.76-2.859-1.1947-5.355-2.848-7.488-4.96-2.112-2.112-3.765-4.5867-4.96-7.424-1.173-2.8373-1.76-5.9093-1.76-9.216 0-3.328.587-6.4107 1.76-9.248 1.195-2.8373 2.848-5.312 4.96-7.424 2.133-2.112 4.629-3.7547 7.488-4.928 2.88-1.1733 6.005-1.76 9.376-1.76 3.349 0 6.453.5973 9.312 1.792s5.355 2.8587 7.488 4.992 3.787 4.6187 4.96 7.456c1.195 2.816 1.792 5.856 1.792 9.12 0 3.3067-.597 6.3787-1.792 9.216-1.173 2.8373-2.827 5.312-4.96 7.424s-4.629 3.7653-7.488 4.96c-2.859 1.1733-5.963 1.76-9.312 1.76zm0-6.784c2.261 0 4.363-.384 6.304-1.152 1.963-.7893 3.669-1.9093 5.12-3.36 1.451-1.472 2.581-3.2213 3.392-5.248.832-2.048 1.248-4.32 1.248-6.816 0-3.3493-.715-6.2613-2.144-8.736-1.408-2.496-3.328-4.4267-5.76-5.792s-5.152-2.048-8.16-2.048c-2.261 0-4.373.3947-6.336 1.184-1.941.768-3.648 1.8773-5.12 3.328-1.451 1.4507-2.592 3.2-3.424 5.248-.811 2.0267-1.216 4.2987-1.216 6.816 0 3.3493.715 6.272 2.144 8.768 1.429 2.4747 3.349 4.3947 5.76 5.76 2.432 1.3653 5.163 2.048 8.192 2.048zm32.388 5.824v-44.8h16.928c3.114 0 5.802.544 8.064 1.632 2.282 1.0667 4.042 2.592 5.28 4.576 1.258 1.984 1.888 4.3413 1.888 7.072 0 2.2187-.48 4.1813-1.44 5.888-.939 1.7067-2.262 3.1147-3.968 4.224-1.707 1.088-3.68 1.824-5.92 2.208l13.504 19.2h-8.672l-12.384-18.08h-6.112v18.08zm7.168-24.032h8.576c2.901 0 5.152-.6187 6.752-1.856 1.621-1.2373 2.432-3.008 2.432-5.312 0-2.368-.726-4.2133-2.176-5.536-1.43-1.3227-3.595-1.984-6.496-1.984h-9.088zm43.844 24.032v-38.24h-12.608v-6.56h32.384v6.56h-12.608v38.24z" fill="#000"/><g stroke="#000"><path d="m15 1-14 23.5 14 26h29.5l14.5-26-14.5-23.5z" fill="#454545"/><path d="m45 65.5h-19l-9.5 16.5 9.5 15h19l8.5-15z" fill="#454545"/><path d="m81.5 16-24 41 24 43h48l24-43-24-41z" fill="#a50a4c"/></g></svg>