<svg xmlns="http://www.w3.org/2000/svg" xmlns:xlink="http://www.w3.org/1999/xlink" width="400" zoomAndPan="magnify" viewBox="0 0 300 187.499995" height="250" preserveAspectRatio="xMidYMid meet" version="1.2" role="img" aria-labelledby="soekit-title"><title id="soekit-title">Soekit logo</title><defs><clipPath id="1b0584162f"><path d="M 87.660156 15.632812 L 175 15.632812 L 175 95.667969 L 87.660156 95.667969 Z M 87.660156 15.632812 "/></clipPath></defs><g id="875c08d018"><path style=" stroke:none;fill-rule:nonzero;fill:#1fc089;fill-opacity:1;" d="M 229.875 81.523438 L 243.902344 81.523438 L 243.902344 94.292969 L 229.875 94.292969 Z M 229.875 81.523438 "/><path style=" stroke:none;fill-rule:nonzero;fill:#1fc089;fill-opacity:1;" d="M 271.929688 89.257812 L 273.84375 89.257812 L 273.84375 94.203125 L 275.734375 94.203125 L 275.734375 89.257812 L 277.675781 89.257812 L 277.675781 87.695312 L 271.929688 87.695312 Z M 271.929688 89.257812 "/><path style=" stroke:none;fill-rule:nonzero;fill:#1fc089;fill-opacity:1;" d="M 283.300781 87.695312 L 282.136719 91.441406 L 280.949219 87.695312 L 278.25 87.695312 L 278.25 94.203125 L 279.976562 94.203125 L 279.976562 89.484375 L 281.390625 94.203125 L 282.863281 94.203125 L 284.269531 89.484375 L 284.269531 94.203125 L 285.996094 94.203125 L 285.996094 87.695312 Z M 283.300781 87.695312 "/><path style=" stroke:none;fill-rule:nonzero;fill:#1fc089;fill-opacity:1;" d="M 264.984375 86.328125 L 251.292969 86.328125 L 251.292969 100.84375 L 213.023438 100.84375 L 195.789062 120.75 L 195.789062 82.203125 L 182.199219 82.203125 L 182.199219 118.59375 C 181.488281 115.195312 180.261719 112.160156 178.5 109.488281 C 176.203125 105.929688 173.285156 103.324219 169.757812 101.671875 C 166.230469 100.023438 162.265625 99.195312 157.867188 99.195312 C 150.453125 99.195312 144.425781 101.640625 139.78125 106.527344 C 136.914062 109.546875 134.9375 113.375 133.839844 118.023438 C 132.746094 114.109375 130.917969 110.539062 128.339844 107.304688 C 123.871094 101.707031 117.09375 98.90625 108 98.90625 C 98.90625 98.90625 92.125 101.707031 87.65625 107.304688 C 83.582031 112.414062 81.371094 118.375 81.015625 125.183594 C 79.964844 122.296875 78.234375 119.898438 75.804688 117.988281 C 73.050781 115.820312 68.972656 114.089844 63.570312 112.792969 L 51.242188 109.832031 C 46.484375 108.699219 43.375 107.714844 41.921875 106.871094 C 39.65625 105.609375 38.523438 103.699219 38.523438 101.140625 C 38.523438 98.359375 39.671875 96.191406 41.96875 94.636719 C 44.265625 93.082031 47.34375 92.304688 51.191406 92.304688 C 54.652344 92.304688 57.550781 92.902344 59.882812 94.101562 C 63.378906 95.914062 65.253906 98.96875 65.515625 103.277344 L 79.886719 103.277344 C 79.628906 95.667969 76.835938 89.871094 71.511719 85.875 C 66.1875 81.878906 59.753906 79.878906 52.210938 79.878906 C 43.183594 79.878906 36.335938 81.996094 31.675781 86.238281 C 27.015625 90.476562 24.6875 95.800781 24.6875 102.210938 C 24.6875 109.234375 27.097656 114.398438 31.917969 117.699219 C 34.769531 119.671875 39.914062 121.5 47.355469 123.183594 L 54.929688 124.882812 C 59.363281 125.851562 62.617188 126.96875 64.6875 128.230469 C 66.753906 129.523438 67.792969 131.355469 67.792969 133.714844 C 67.792969 137.761719 65.707031 140.527344 61.53125 142.019531 C 59.332031 142.792969 56.46875 143.183594 52.941406 143.183594 C 47.050781 143.183594 42.890625 141.710938 40.460938 138.765625 C 39.132812 137.144531 38.246094 134.703125 37.792969 131.433594 L 23.519531 131.433594 C 23.519531 138.875 26.1875 144.726562 31.527344 148.980469 C 36.867188 153.242188 44.195312 155.367188 53.519531 155.367188 C 62.84375 155.367188 69.710938 153.207031 74.710938 148.882812 C 78.875 145.289062 81.296875 140.921875 81.996094 135.785156 C 83.0625 139.964844 84.945312 143.734375 87.660156 147.085938 C 92.128906 152.609375 98.90625 155.367188 108.003906 155.367188 C 117.101562 155.367188 123.878906 152.609375 128.34375 147.085938 C 130.847656 143.996094 132.644531 140.550781 133.746094 136.75 C 134.910156 141.917969 137.171875 145.921875 140.535156 148.761719 C 145.683594 153.101562 151.621094 155.269531 158.355469 155.269531 C 166.511719 155.269531 172.851562 152.695312 177.386719 147.550781 C 180.136719 144.492188 181.730469 141.484375 182.203125 138.511719 L 182.203125 153.519531 L 195.796875 153.519531 L 195.796875 136.867188 L 201.527344 130.898438 L 214.195312 153.519531 L 243.914062 153.519531 L 243.914062 110.921875 L 243.921875 110.921875 L 243.921875 110.945312 L 251.300781 110.945312 L 251.300781 143.523438 C 251.300781 146.820312 252.078125 149.265625 253.632812 150.851562 C 256.027344 153.34375 260.496094 154.476562 267.03125 154.25 L 273.585938 154.007812 L 273.585938 143.667969 C 273.132812 143.699219 272.671875 143.722656 272.203125 143.742188 C 271.734375 143.757812 271.285156 143.765625 270.867188 143.765625 C 268.054688 143.765625 266.367188 143.5 265.820312 142.964844 C 265.265625 142.429688 264.996094 141.082031 264.996094 138.910156 L 264.996094 110.945312 L 273.585938 110.945312 L 273.585938 100.851562 L 264.996094 100.851562 L 264.996094 86.335938 Z M 117.269531 139.441406 C 115.105469 142.324219 111.996094 143.761719 107.953125 143.761719 C 103.90625 143.761719 100.792969 142.324219 98.605469 139.441406 C 96.421875 136.5625 95.332031 132.46875 95.332031 127.160156 C 95.332031 121.855469 96.421875 117.765625 98.605469 114.902344 C 100.792969 112.042969 103.90625 110.609375 107.953125 110.609375 C 111.996094 110.609375 115.105469 112.042969 117.269531 114.902344 C 119.4375 117.765625 120.527344 121.855469 120.527344 127.160156 C 120.527344 132.46875 119.441406 136.5625 117.269531 139.441406 Z M 150.414062 113.613281 C 152.175781 111.609375 154.660156 110.605469 157.867188 110.605469 C 160.808594 110.605469 163.277344 111.550781 165.269531 113.441406 C 167.257812 115.335938 168.367188 118.113281 168.59375 121.769531 L 147.089844 121.769531 C 147.539062 118.339844 148.652344 115.621094 150.414062 113.613281 Z M 182.195312 137.984375 L 168.152344 137.984375 C 167.410156 139.535156 166.554688 140.753906 165.582031 141.625 C 163.800781 143.242188 161.488281 144.050781 158.636719 144.050781 C 155.949219 144.050781 153.652344 143.386719 151.746094 142.058594 C 148.605469 139.925781 146.9375 136.203125 146.746094 130.894531 L 182.195312 130.894531 Z M 229.875 151.808594 L 211.660156 121.089844 L 229.875 101.15625 Z M 229.875 151.808594 "/><path style=" stroke:none;fill-rule:nonzero;fill:#1fc089;fill-opacity:1;" d="M 153.214844 64.796875 C 153.183594 65.929688 152.742188 66.628906 151.816406 67.042969 C 150.863281 67.464844 150.132812 67.09375 149.53125 66.414062 C 149.1875 66.027344 148.972656 65.523438 148.710938 65.066406 C 148.0625 63.921875 147.121094 63.125 145.792969 63.132812 C 144.5 63.144531 143.4375 63.75 142.796875 64.953125 C 142.605469 65.3125 142.414062 65.675781 142.1875 66.011719 C 141.453125 67.085938 140.441406 67.449219 139.476562 67.007812 C 138.414062 66.519531 137.957031 65.503906 138.3125 64.238281 C 139.078125 61.535156 140.902344 59.847656 143.542969 59.058594 C 147.429688 57.894531 151.828125 60.214844 153 63.984375 C 153.09375 64.292969 153.167969 64.609375 153.214844 64.796875 Z M 153.214844 64.796875 "/><g clip-rule="nonzero" clip-path="url(#1b0584162f)"><path style=" stroke:none;fill-rule:nonzero;fill:#1fc089;fill-opacity:1;" d="M 174.875 61.40625 C 174.847656 57.757812 172.792969 55.191406 169.214844 54.429688 C 168.4375 54.265625 168.144531 53.925781 167.964844 53.234375 C 165.480469 43.488281 155.59375 37.058594 147.09375 37.265625 C 142.636719 37.375 138.171875 37.285156 133.527344 37.285156 C 133.527344 34.503906 133.503906 31.886719 133.554688 29.269531 C 133.5625 28.984375 133.933594 28.605469 134.226562 28.445312 C 136.597656 27.144531 138.191406 24.488281 137.882812 22.105469 C 137.488281 19.089844 135.917969 16.921875 132.976562 15.957031 C 132.410156 15.773438 131.84375 15.675781 131.277344 15.652344 C 130.714844 15.675781 130.148438 15.773438 129.582031 15.957031 C 126.640625 16.921875 125.070312 19.089844 124.675781 22.105469 C 124.367188 24.488281 125.960938 27.144531 128.332031 28.445312 C 128.625 28.605469 128.996094 28.984375 129 29.269531 C 129.054688 31.886719 129.03125 34.503906 129.03125 37.285156 C 124.386719 37.285156 119.921875 37.375 115.464844 37.265625 C 106.964844 37.058594 97.078125 43.488281 94.59375 53.234375 C 94.414062 53.925781 94.121094 54.265625 93.34375 54.429688 C 89.765625 55.191406 87.710938 57.757812 87.683594 61.40625 C 87.65625 64.398438 87.667969 67.390625 87.707031 70.382812 C 87.746094 73.660156 89.871094 76.371094 93.074219 77.15625 C 93.875 77.351562 94.191406 77.699219 94.371094 78.484375 C 96.644531 88.371094 105.785156 95.632812 115.910156 95.636719 C 121.035156 95.640625 126.15625 95.648438 131.277344 95.648438 C 136.402344 95.648438 141.523438 95.640625 146.648438 95.636719 C 156.773438 95.632812 165.914062 88.371094 168.1875 78.484375 C 168.367188 77.699219 168.683594 77.351562 169.484375 77.15625 C 172.6875 76.371094 174.8125 73.660156 174.851562 70.382812 C 174.890625 67.390625 174.898438 64.398438 174.875 61.40625 Z M 164.234375 72.179688 C 164.191406 73.960938 163.964844 75.78125 163.515625 77.507812 C 161.554688 85.035156 155.3125 90.324219 147.554688 90.710938 C 142.140625 90.984375 136.707031 90.769531 131.277344 90.765625 C 125.851562 90.769531 120.417969 90.984375 115.003906 90.710938 C 107.246094 90.324219 101.003906 85.035156 99.042969 77.507812 C 98.59375 75.78125 98.367188 73.960938 98.324219 72.179688 C 98.21875 68.121094 98.265625 64.0625 98.296875 60.003906 C 98.375 49.792969 106.199219 42.027344 116.410156 42.011719 C 121.367188 42.007812 126.324219 42.003906 131.277344 42.003906 C 136.234375 42.003906 141.191406 42.007812 146.148438 42.011719 C 156.359375 42.027344 164.183594 49.792969 164.261719 60.003906 C 164.292969 64.0625 164.339844 68.121094 164.234375 72.179688 Z M 164.234375 72.179688 "/></g><path style=" stroke:none;fill-rule:nonzero;fill:#1fc089;fill-opacity:1;" d="M 141.660156 75.070312 C 140.6875 74.644531 139.59375 74.976562 138.832031 75.917969 C 138.78125 75.980469 138.726562 76.042969 138.683594 76.113281 C 137.195312 78.597656 134.296875 80.046875 131.277344 80.121094 C 128.261719 80.046875 125.363281 78.597656 123.875 76.113281 C 123.832031 76.042969 123.777344 75.980469 123.726562 75.917969 C 122.964844 74.976562 121.867188 74.644531 120.898438 75.070312 C 119.894531 75.507812 119.3125 76.632812 119.707031 77.84375 C 119.976562 78.667969 120.464844 79.480469 121.042969 80.136719 C 123.757812 83.234375 127.277344 84.558594 131.277344 84.695312 C 135.28125 84.558594 138.800781 83.234375 141.515625 80.136719 C 142.09375 79.480469 142.582031 78.667969 142.851562 77.84375 C 143.246094 76.632812 142.664062 75.507812 141.660156 75.070312 Z M 141.660156 75.070312 "/><path style=" stroke:none;fill-rule:nonzero;fill:#1fc089;fill-opacity:1;" d="M 123.132812 63.082031 C 123.164062 59.484375 120.390625 56.644531 116.824219 56.628906 C 113.441406 56.613281 110.597656 59.464844 110.574219 62.894531 C 110.550781 66.597656 113.191406 69.335938 116.800781 69.351562 C 120.347656 69.367188 123.097656 66.644531 123.132812 63.082031 Z M 123.132812 63.082031 "/></g></svg>